HIERARCHY
ROOT pelvis
{
  OFFSET 0 100 0
  CHANNELS 6 Xposition Yposition Zposition Zrotation Xrotation Yrotation
  JOINT pelvis_right_femur
  {
    OFFSET -10.78128 -3.44521 -0.5502486
    CHANNELS 3 Zrotation Xrotation Yrotation
    JOINT right_femur_tibia
    {
      OFFSET -0.8047443 -44.0398 -0.1307829
      CHANNELS 3 Zrotation Xrotation Yrotation
      JOINT right_tibia_foot
      {
        OFFSET 3.006224 -47.83518 -5
        CHANNELS 3 Zrotation Xrotation Yrotation
        End Site
        {
          OFFSET 0 -5 15
        }
      }
    }
  }
  JOINT pelvis_left_femur
  {
    OFFSET 10.78128 -3.44521 -0.5502486
    CHANNELS 3 Zrotation Xrotation Yrotation
    JOINT left_femur_tibia
    {
      OFFSET 0.8047443 -44.0398 -0.1307829
      CHANNELS 3 Zrotation Xrotation Yrotation
      JOINT left_tibia_foot
      {
        OFFSET -4.370144 -48.10324 -4.275266
        CHANNELS 3 Zrotation Xrotation Yrotation
        End Site
        {
          OFFSET 0 -5 15
        }
      }
    }
  }
  JOINT pelvis_spine1
  {
    OFFSET 0 6.468898 -3.129235
    CHANNELS 3 Zrotation Xrotation Yrotation
    JOINT spine1
    {
      OFFSET 0 23.15396 4.99043
      CHANNELS 3 Zrotation Xrotation Yrotation
      JOINT spine2
      {
        OFFSET 0 20.79997 -5.064912
        CHANNELS 3 Zrotation Xrotation Yrotation
        JOINT neck
        {
          OFFSET 0 14.38658 9.616178
          CHANNELS 3 Zrotation Xrotation Yrotation
          End Site
          {
            OFFSET 0 20 0
          }
        }
      }
      JOINT right_manubrium
      {
        OFFSET -5.722621 16.35077 3.967754
        CHANNELS 3 Zrotation Xrotation Yrotation
        JOINT right_clavicle
        {
          OFFSET -13.16364 1.694482 -4.693211
          CHANNELS 3 Zrotation Xrotation Yrotation
          JOINT right_humerus
          {
            OFFSET -28.5034 -0.3100689 -2.792744
            CHANNELS 3 Zrotation Xrotation Yrotation
            JOINT right_radius
            {
              OFFSET -25.15693 0.02248979 -1.271978
              CHANNELS 3 Zrotation Xrotation Yrotation
              End Site
              {
                OFFSET -15 0 0
              }
            }
          }
        }
      }
      JOINT left_manubrium
      {
        OFFSET 5.722621 16.35077 3.967754
        CHANNELS 3 Zrotation Xrotation Yrotation
        JOINT left_clavicle
        {
          OFFSET 13.16364 1.694482 -4.693211
          CHANNELS 3 Zrotation Xrotation Yrotation
          JOINT left_humerus
          {
            OFFSET 29.39168 -1.063119 -2.237045
            CHANNELS 3 Zrotation Xrotation Yrotation
            JOINT left_radius
            {
              OFFSET 24.59957 -0.9528479 0.9047498
              CHANNELS 3 Zrotation Xrotation Yrotation
              End Site
              {
                OFFSET 15 -0 -0
              }
            }
          }
        }
      }
    }
  }
}
MOTION
Frames: 15
Frame Time: 0.0416666666667
0 103.5113 0 0.1418809 -1.777817 0.02849515 2.134294 -6.965176 11.16735 -0 30.46883 -0 -9.175878 -16.21069 -2.607471 -5.442045 7.795267 -16.42486 -0 9.320385 -0 17.93526 -16.83885 23.30645 0.6232678 -5.64125 5.729968 -2.937417 8.588491 -3.678137 0.5303538 20.18095 9.653719 9.655975 -17.6685 3.818037 8.993439 -23.64782 7.198855 87.54667 34.42309 -28.22308 -0 0 20.21913 -9.704019 10.81966 0.8443942 2.016452 -13.89192 -6.22972 -91.93772 27.92752 20.67663 0 0 -10.002 7.112709 30.25218 9.527086
0.5193815 103.3791 1.418042 0.1362642 -1.782471 -0.004326968 2.831131 -10.53708 11.07978 -0 35.68818 -0 -9.27124 -15.73807 -3.763137 -5.69588 8.955385 -16.23899 -0 8.82889 -0 17.41317 -17.57346 23.15104 0.3090784 -4.869449 5.327068 -2.904635 8.803101 -4.362764 0.546749 19.83662 10.07755 9.822389 -18.09929 4.303324 8.924067 -23.53909 7.119985 87.42467 34.38006 -28.14885 -0 0 19.80561 -9.923075 10.67825 0.9572446 2.3884 -14.74794 -5.729219 -91.65281 27.98167 20.68009 0 0 -10.5203 7.098187 29.32662 9.480807
0.9612209 103.3989 2.946828 0.1295304 -1.761446 0.08616661 3.670574 -14.55874 10.65238 -0 38.81802 -0 -9.471412 -15.07801 -4.705794 -5.862692 10.2081 -16.04713 -0 8.225484 -0 16.72081 -18.23674 22.9347 0.0832556 -4.029072 5.094958 -2.744475 8.954461 -4.818075 0.6317437 19.66458 10.44472 9.853807 -18.59091 4.981322 8.657897 -23.27075 6.940113 87.48822 34.36751 -28.24867 -0 0 19.32354 -10.14471 10.6039 1.115925 2.738143 -15.72111 -5.073519 -91.20576 27.96055 20.06172 0 0 -11.68301 7.271778 28.35187 9.178989
1.352978 103.2888 4.725915 0.1218106 -1.750543 0.1241094 4.096529 -18.56322 9.807685 -0 39.4048 -0 -9.637491 -13.87172 -5.350124 -6.123289 11.64574 -15.77718 -0 7.610083 -0 15.9349 -18.94799 22.67403 -0.4253888 -2.855413 4.926093 -2.494526 8.871732 -5.304618 0.946249 19.49417 10.70279 9.87037 -19.18133 5.867922 8.27618 -23.26258 6.929089 87.50336 34.45543 -28.05616 -0 0 19.03794 -10.39382 10.59709 1.392363 3.164634 -16.71787 -4.708352 -90.41878 27.96566 19.06405 0 0 -12.96993 7.418868 27.31488 8.808766
1.786517 103.2551 6.639443 0.1145599 -1.754142 0.08937518 4.456735 -22.33362 8.842619 -0 37.80693 -0 -9.734084 -12.06084 -5.551219 -6.222973 13.12752 -15.55852 -0 7.140293 -0 15.01135 -19.73338 22.1856 -0.6766213 -1.552572 4.818133 -1.842008 8.835119 -5.810203 1.02172 19.40082 11.06286 9.685664 -19.84835 6.815217 7.876689 -22.60195 6.83392 87.98925 34.44209 -28.59353 -0 0 17.91975 -10.24709 10.49228 1.295395 3.740055 -18.07501 -4.773184 -89.72597 27.99334 17.49554 0 0 -15.01139 7.722813 26.35514 8.154932
2.171676 102.8672 9.089278 0.1083757 -1.716138 0.2562055 4.884321 -25.5872 8.167501 -0 33.58395 -0 -9.563459 -10.21068 -5.13609 -6.396721 14.6972 -15.3051 -0 6.916247 -0 14.08596 -20.66583 21.61925 -1.201925 -0.3476495 4.637422 -1.27155 8.730454 -6.446169 1.067133 19.09153 11.22058 9.452171 -20.37937 7.421888 7.42457 -22.14147 6.85016 88.46162 34.46298 -28.83743 -0 0 17.02515 -10.10908 10.40278 1.335888 4.34979 -18.98929 -4.928875 -89.03324 27.87013 15.91816 0 0 -17.3133 8.136016 25.35387 7.345163
2.443459 102.18 11.8994 0.1035973 -1.626679 0.675701 5.204431 -28.17415 7.622961 -0 28.07734 -0 -9.298565 -8.2859 -4.473492 -6.469279 16.31938 -15.14155 -0 7.090089 -0 13.13414 -21.71136 20.87931 -1.514851 0.6446447 4.587312 -0.6845029 8.612554 -6.940826 1.154481 18.91252 11.32852 9.224266 -20.74267 7.998145 6.773091 -21.53431 6.689151 89.0574 34.47847 -29.18985 -0 0 15.94609 -9.948018 10.32821 1.385775 5.030958 -19.99983 -4.740167 -88.13726 27.68725 14.07445 0 0 -19.68817 8.540182 24.31697 6.505206
2.713089 101.2954 15.03032 0.09910595 -1.535277 1.107518 5.29264 -30.2257 6.957956 -0 22.48266 -0 -9.148973 -6.758606 -4.010774 -6.509246 17.8966 -14.9822 -0 7.653192 -0 12.04447 -22.72922 19.91509 -1.772022 1.587076 4.575289 -0.1110456 8.486286 -7.388214 1.276337 18.74927 11.42314 9.031699 -20.97118 8.541353 6.088978 -20.9235 6.609834 89.67651 34.53794 -29.49874 -0 0 14.68422 -9.756641 10.27415 1.443067 5.590976 -20.82229 -4.648541 -87.33764 27.42393 12.48096 0 0 -21.60094 8.816652 23.22169 5.832487
2.963172 100.3293 18.63933 0.09418534 -1.363145 1.940045 5.313069 -31.71613 6.303976 -0 18.23239 -0 -9.202493 -5.563957 -3.764741 -6.620597 19.49173 -14.53886 -0 8.847219 -0 10.62711 -23.42213 18.7581 -1.913526 2.546329 4.569993 0.4612503 8.211992 -7.809622 1.350082 18.65053 11.55027 8.882532 -21.17192 9.023428 5.578107 -20.45784 6.741511 90.27975 34.69487 -29.68287 -0 0 13.11601 -9.517919 10.25484 1.492647 5.904529 -21.66901 -4.715284 -86.75303 27.14943 11.05336 0 0 -23.15694 9.015132 22.16464 5.294206
3.269987 99.58383 22.98955 0.0889854 -1.23541 2.559484 5.462415 -32.13741 5.932989 -0 16.6747 -0 -9.538308 -4.631774 -3.70791 -6.47635 21.09045 -14.01303 -0 10.9517 -0 8.705118 -23.38577 17.0407 -1.877714 3.136274 4.190668 0.8649802 8.024833 -8.401815 1.316901 18.48917 11.64187 8.658469 -21.39569 9.365938 5.217826 -20.02367 6.761972 90.78456 34.81658 -29.84289 -0 0 11.64855 -9.393117 10.27143 1.696506 5.813103 -22.15845 -4.828422 -86.48791 26.87963 10.38641 0 0 -23.7457 9.058433 21.13868 5.042112
3.573545 99.07006 27.8863 0.0814046 -1.056334 3.436251 5.555694 -31.25498 5.772021 -0 17.98645 -0 -10.13991 -3.988921 -3.885616 -6.274321 22.08622 -13.42934 -0 14.36581 -0 6.31811 -22.1066 14.95917 -1.776588 3.496846 3.751115 1.248639 7.900174 -8.942286 1.243154 18.36232 11.66606 8.384784 -21.5245 9.578196 4.946711 -19.60415 6.784999 91.25159 34.93099 -29.92468 -0 0 10.24458 -9.3631 10.33431 2.028369 5.660222 -22.37864 -4.9051 -86.50628 26.68229 10.32516 0 0 -23.76102 8.858958 20.16447 5.031841
3.791021 99.01464 33.06595 0.0708986 -0.8474509 4.465173 5.608969 -30.01166 5.822546 -0 20.3457 -0 -10.82064 -3.812603 -4.272049 -5.994942 22.11538 -12.48151 -0 19.42539 -0 3.659229 -19.15391 12.70379 -1.4976 3.595239 3.102165 1.525515 7.724309 -9.598985 1.032 18.16498 11.71436 8.019096 -21.61805 9.696184 4.826048 -19.40492 6.947526 91.61 35.06011 -29.70358 -0 0 9.217963 -9.44596 10.44529 2.510973 5.277216 -22.11049 -5.131862 -86.88396 26.58391 11.1145 0 0 -22.89729 8.393151 19.24695 5.305121
4.14644 99.43934 38.99578 0.06680178 -0.7957391 4.72068 5.742668 -27.68619 6.074686 -0 22.32109 -0 -11.45488 -4.353458 -4.671116 -6.283457 20.89612 -11.32451 -0 27.16155 -0 1.033827 -14.39828 10.58241 -1.162034 3.232843 2.783067 1.585849 7.804719 -9.905254 0.7825425 18.17962 11.70853 7.634993 -21.58819 9.70076 4.690321 -19.16605 7.177225 91.86889 35.18283 -29.2316 -0 0 8.527005 -9.676701 10.59929 3.151932 4.741775 -21.48886 -5.260774 -87.61385 26.54516 12.60732 0 0 -21.33999 7.660329 18.36983 5.847542
4.503831 100.1576 45.03081 0.07091345 -0.9151693 4.132965 6.083945 -24.3075 6.37556 -0 23.19402 -0 -12.03517 -5.881356 -4.944469 -6.608807 17.43027 -10.4098 -0 36.74691 -0 -0.9587666 -8.932134 8.991078 -0.8826415 2.63795 3.021447 1.516906 7.995407 -9.782586 0.4269015 18.47996 11.66917 7.19632 -21.36589 9.567465 4.690549 -19.1066 7.577266 91.8487 35.36194 -28.29627 -0 0 8.241685 -10.10184 10.79749 3.950061 4.17071 -20.87777 -5.280453 -88.41776 26.5032 14.39102 0 0 -19.48964 6.73783 17.53187 6.541989
4.747705 101.117 50.87557 0.07495388 -1.053894 3.453929 6.212115 -20.08285 6.468568 -0 22.48714 -0 -12.35686 -7.766271 -5.045052 -6.549201 11.42857 -9.448435 -0 46.40444 -0 -2.078992 -4.458516 8.637989 -0.738681 2.160817 3.885144 1.381475 8.217965 -9.216032 0.1741096 18.79785 11.40167 6.792985 -21.23902 9.221256 4.923865 -19.07667 8.247019 91.4749 35.55613 -26.91653 -0 0 8.461577 -10.7896 11.0142 4.958582 3.501635 -20.50942 -5.180041 -89.11622 26.32902 16.13895 0 0 -17.82813 5.771072 16.69633 7.240543
